<svg version="1.2" xmlns="http://www.w3.org/2000/svg" viewBox="0 0 169 44" width="169" height="44">
	<title>logo-svg</title>
	<style>
		tspan { white-space:pre } 
		.s0 { fill: #e2d703 } 
		.t1 { font-size: 15px;fill: #ffffff;font-weight: 400;font-family: "Days", "Days" } 
		.s2 { fill: none;stroke: #e2d703;stroke-linecap: round;stroke-linejoin: round;stroke-width: 3 } 
	</style>
	<path id="Layer" fill-rule="evenodd" class="s0" d="m44 22c0 12.2-9.8 22-22 22-12.2 0-22-9.8-22-22 0-12.2 9.8-22 22-22 12.2 0 22 9.8 22 22zm-33-9c-2.8 0-5 2.2-5 5 0 2.8 2.2 5 5 5 2.8 0 5-2.2 5-5 0-2.8-2.2-5-5-5zm4 23c2.8 0 5-2.2 5-5 0-2.8-2.2-5-5-5-2.8 0-5 2.2-5 5 0 2.8 2.2 5 5 5zm14-10c-2.8 0-5 2.2-5 5 0 2.8 2.2 5 5 5 2.8 0 5-2.2 5-5 0-2.8-2.2-5-5-5zm4-3c2.8 0 5-2.2 5-5 0-2.8-2.2-5-5-5-2.8 0-5 2.2-5 5 0 2.8 2.2 5 5 5zm-11-18c-2.8 0-5 2.2-5 5 0 2.8 2.2 5 5 5 2.8 0 5-2.2 5-5 0-2.8-2.2-5-5-5zm0 19c1.1 0 2-0.9 2-2 0-1.1-0.9-2-2-2-1.1 0-2 0.9-2 2 0 1.1 0.9 2 2 2z"/>
	<text id="CODECAT FILMS" style="transform: matrix(1,0,0,1,61,22)" >
		<tspan x="0" y="0" class="t1">C</tspan><tspan  y="0" class="t1">O</tspan><tspan  y="0" class="t1">D</tspan><tspan  y="0" class="t1">E</tspan><tspan  y="0" class="t1">C</tspan><tspan  y="0" class="t1">A</tspan><tspan  y="0" class="t1">T</tspan><tspan  y="0" class="t1">
</tspan>
		<tspan x="0" y="18" class="t1">F</tspan><tspan  y="18" class="t1">I</tspan><tspan  y="18" class="t1">L</tspan><tspan  y="18" class="t1">M</tspan><tspan  y="18" class="t1">S
</tspan>
	</text>
	<path id="Layer" fill-rule="evenodd" class="s2" d="m33.5 38.5c2-1.3 9.5-3.5 16 1.5"/>
	<text id="" style="transform: matrix(1,0,0,1,235.333,60.333)" >
	</text>
</svg>